<?xml version="1.0" encoding="UTF-8"?>
<svg id="_Слой_2" data-name="Слой 2" xmlns="http://www.w3.org/2000/svg" viewBox="0 0 370.03 413.19">
  <defs>
    <style>
      .cls-1 {
        fill: #cdff4e;
      }

      .cls-2 {
        fill: gray;
      }

      .cls-2, .cls-3 {
        opacity: 0;
      }

      .cls-3 {
        fill: none;
        stroke: gray;
        stroke-miterlimit: 10;
        stroke-width: 3px;
      }
    </style>
  </defs>
  <g id="_Слой_1-2" data-name="Слой 1">
    <g>
      <line class="cls-3" x1="368.53" y1="1.5" x2="1.5" y2="1.5"/>
      <line class="cls-3" x1="59.01" y1="1.73" x2="59.01" y2="411.69"/>
      <line class="cls-3" x1="1.5" y1="1.5" x2="1.5" y2="412.21"/>
      <line class="cls-3" x1="368.53" y1="59.01" x2="1.5" y2="59.01"/>
      <line class="cls-3" x1="368.53" y1="354.18" x2="1.5" y2="354.18"/>
      <line class="cls-3" x1="368.53" y1="411.69" x2="1.5" y2="411.69"/>
      <line class="cls-3" x1="310.89" y1="1.46" x2="310.89" y2="411.69"/>
      <line class="cls-3" x1="368.53" y1="1.46" x2="368.53" y2="411.69"/>
      <path class="cls-2" d="M281.79,411.69c-16.92,0-28.95-12.65-28.95-28.72s12.03-28.79,28.95-28.79,29.1,12.65,29.1,28.79-12.18,28.72-29.1,28.72ZM281.79,369.32c-8.77,0-15.83,4.89-15.83,13.66s7.06,13.66,15.83,13.66,15.99-4.89,15.99-13.66-7.22-13.66-15.99-13.66Z"/>
      <g>
        <path class="cls-1" d="M185.26,354.18c6.08,0,12.38-.45,18.23-1.32,12.65-1.87,24.69-5.69,35.83-11.18,12.11-5.95,23.16-13.86,32.75-23.33,1.03-1.03,2.06-2.08,3.08-3.14,9.06-9.57,16.69-20.59,22.56-32.68,5.38-11.13,9.28-23.16,11.4-35.83,0,0,1.88-11.2,1.86-22.39-.05-24.22-9.18-47.39-11.96-54.09-3.15,7.86-9.1,19.96-20.15,31.95-11.24,12.21-23.05,19.19-30.69,22.95.05.88.11,2.14.11,3.66,0,6.23-.91,12.24-2.6,17.91-1.51,5.11-3.67,9.93-6.36,14.4-5.28,8.77-12.66,16.14-21.43,21.43-4.47,2.69-9.29,4.85-14.4,6.36-7.34,2.17-13.75,2.62-18.23,2.6-4.48.03-10.89-.42-18.23-2.6-5.11-1.51-9.93-3.67-14.4-6.36-8.77-5.28-16.14-12.66-21.43-21.43-2.69-4.47-4.85-9.29-6.36-14.4-1.69-5.67-2.6-11.68-2.6-17.91,0-1.52.06-2.78.11-3.66-7.64-3.77-19.44-10.74-30.69-22.95-11.05-12-17-24.1-20.15-31.95-2.78,6.7-11.91,29.87-11.96,54.09-.02,11.19,1.86,22.39,1.86,22.39,2.12,12.67,6.02,24.7,11.4,35.83,5.87,12.09,13.5,23.11,22.56,32.68,1.01,1.06,2.04,2.11,3.08,3.14,9.59,9.46,20.64,17.38,32.75,23.33,11.14,5.48,23.18,9.3,35.83,11.18,5.85.88,12.15,1.32,18.23,1.32"/>
        <path d="M185.26,94.46c5.91,0,10.7.39,14.18.78,1.44.16,2.79.34,4.06.53,9.57,1.41,18.8,3.95,27.55,7.48l50.16-42.95,5.84,87.69v.03c-8.84,13.27-21.91,29.98-40.53,46.34-22.6,19.85-44.94,31.79-61.24,38.91-16.3-7.12-38.65-19.06-61.24-38.91-18.63-16.36-31.7-33.06-40.54-46.34v-.03s5.85-87.69,5.85-87.69l50.16,42.95c8.75-3.53,17.97-6.07,27.55-7.48,1.26-.19,2.62-.37,4.06-.53,3.47-.39,8.26-.78,14.18-.78"/>
      </g>
      <path class="cls-2" d="M1.5,87.99c0-16.92,12.65-28.95,28.72-28.95s28.79,12.03,28.79,28.95-12.65,29.1-28.79,29.1S1.5,104.91,1.5,87.99ZM43.87,87.99c0-8.77-4.89-15.83-13.66-15.83s-13.66,7.06-13.66,15.83,4.89,15.99,13.66,15.99,13.66-7.22,13.66-15.99Z"/>
      <path class="cls-2" d="M88.48,1.46c16.92,0,28.95,12.65,28.95,28.72s-12.03,28.79-28.95,28.79-29.1-12.65-29.1-28.79S71.56,1.46,88.48,1.46ZM88.48,43.84c8.77,0,15.83-4.89,15.83-13.66s-7.06-13.66-15.83-13.66-15.99,4.89-15.99,13.66,7.22,13.66,15.99,13.66Z"/>
      <path class="cls-2" d="M310.89,325.08c0-16.92,12.65-28.95,28.72-28.95s28.79,12.03,28.79,28.95-12.65,29.1-28.79,29.1-28.72-12.18-28.72-29.1ZM353.27,325.08c0-8.77-4.89-15.83-13.66-15.83s-13.66,7.06-13.66,15.83,4.89,15.99,13.66,15.99,13.66-7.22,13.66-15.99Z"/>
    </g>
  </g>
</svg>