<?xml version="1.0" encoding="UTF-8"?>
<svg xmlns="http://www.w3.org/2000/svg" viewBox="0 0 512 512" width="128" height="128">
  <defs>
    <style>
      .cls-1 { fill: #cdff4e; }
    </style>
  </defs>
  <g>
    <!-- Основна емблема -->
    <path class="cls-1" d="M256,384c19.15,0,38.96-1.44,56.89-8.01,39.54-13.63,73.35-42.22,95.49-78.9,21.11-34.87,30.12-75.08,30.12-117.09 0-24.12-5.38-49.03-14.3-72.23-7.4,17.96-20.79,38.92-43.77,58.1-24.44,20.18-45.25,29.61-60.51,35.19.09,1.34.19,3.2.19,5.49 0,17.66-3.6,34.67-10.3,49.27-6.88,14.95-17.32,28.59-30.82,38.09-9.27,6.98-19.78,12.07-30.68,15.7-14.96,4.96-28.04,5.99-37.17,5.96-9.12.03-22.2-.99-37.17-5.96-10.89-3.63-21.41-8.72-30.68-15.7-13.5-9.5-23.94-23.14-30.82-38.09-6.7-14.6-10.3-31.61-10.3-49.27 0-2.29.1-4.15.19-5.49-15.26-5.58-36.07-15.01-60.51-35.19-22.98-19.18-36.37-40.14-43.77-58.1-8.92,23.2-14.3,48.11-14.3,72.23 0,42.01,9.01,82.22,30.12,117.09 22.14,36.68,55.95,65.27,95.49,78.9 17.93,6.57,37.74,8.01,56.89,8.01z"/>
  </g>
</svg>
