<?xml version="1.0" encoding="UTF-8"?>
<svg id="_Слой_2" data-name="Слой 2" xmlns="http://www.w3.org/2000/svg" viewBox="0 0 1102.91 413.38">
  <defs>
    <style>
      .cls-1 {
        fill: gray;
      }

      .cls-2 {
        fill: none;
        stroke: gray;
        stroke-miterlimit: 10;
        stroke-width: 3px;
      }

      .cls-3 {
        fill: #cdff4e;
      }

      .cls-4 {
        opacity: 0;
      }
    </style>
  </defs>
  <g id="_Слой_1-2" data-name="Слой 1">
    <g>
      <g class="cls-4">
        <line class="cls-2" x1="59.04" y1="1.74" x2="59.04" y2="411.88"/>
        <line class="cls-2" x1="1.5" y1="1.5" x2="1.5" y2="412.4"/>
        <line class="cls-2" x1="1101.41" y1="59.03" x2="1.5" y2="59.03"/>
        <line class="cls-2" x1="1101.41" y1="1.5" x2="1.5" y2="1.5"/>
        <line class="cls-2" x1="1101.41" y1="354.35" x2="1.5" y2="354.35"/>
        <line class="cls-2" x1="1101.41" y1="250.72" x2="1.5" y2="250.72"/>
        <line class="cls-2" x1="1101.41" y1="148.07" x2="1.5" y2="148.07"/>
        <line class="cls-2" x1="1101.41" y1="411.88" x2="1.5" y2="411.88"/>
        <line class="cls-2" x1="311.04" y1="1.46" x2="311.04" y2="411.88"/>
        <line class="cls-2" x1="368.7" y1="1.46" x2="368.7" y2="411.88"/>
        <line class="cls-2" x1="1043.88" y1="1.46" x2="1043.88" y2="411.88"/>
        <line class="cls-2" x1="1101.41" y1="1.5" x2="1101.41" y2="411.88"/>
        <path class="cls-1" d="M1014.76,411.45c-16.93,0-28.96-12.66-28.96-28.73s12.03-28.81,28.96-28.81,29.12,12.66,29.12,28.81-12.19,28.73-29.12,28.73ZM1014.76,369.06c-8.77,0-15.84,4.89-15.84,13.67s7.07,13.67,15.84,13.67,15.99-4.89,15.99-13.67-7.22-13.67-15.99-13.67Z"/>
        <path class="cls-1" d="M1.5,88.04c0-16.93,12.66-28.96,28.73-28.96s28.81,12.03,28.81,28.96-12.66,29.12-28.81,29.12S1.5,104.96,1.5,88.04ZM43.89,88.04c0-8.77-4.89-15.84-13.67-15.84s-13.67,7.07-13.67,15.84,4.89,15.99,13.67,15.99,13.67-7.22,13.67-15.99Z"/>
        <path class="cls-1" d="M88.52,1.46c16.93,0,28.96,12.66,28.96,28.73s-12.03,28.81-28.96,28.81-29.12-12.66-29.12-28.81S71.6,1.46,88.52,1.46ZM88.52,43.86c8.77,0,15.84-4.89,15.84-13.67s-7.07-13.67-15.84-13.67-15.99,4.89-15.99,13.67,7.22,13.67,15.99,13.67Z"/>
        <path class="cls-1" d="M1043.88,325.23c0-16.93,12.66-28.96,28.73-28.96s28.81,12.03,28.81,28.96-12.66,29.12-28.81,29.12-28.73-12.19-28.73-29.12ZM1086.27,325.23c0-8.77-4.89-15.84-13.67-15.84s-13.67,7.07-13.67,15.84,4.89,15.99,13.67,15.99,13.67-7.22,13.67-15.99Z"/>
        <path class="cls-1" d="M311,221.47c0-16.93,12.66-28.96,28.73-28.96s28.81,12.03,28.81,28.96-12.66,29.12-28.81,29.12-28.73-12.19-28.73-29.12ZM353.39,221.47c0-8.77-4.89-15.84-13.67-15.84s-13.67,7.07-13.67,15.84,4.89,15.99,13.67,15.99,13.67-7.22,13.67-15.99Z"/>
      </g>
      <g>
        <path d="M368.68,199.58c0-30.95,23.14-52.95,52.53-52.95s52.67,22,52.67,52.95-23.14,53.24-52.67,53.24-52.53-22.29-52.53-53.24ZM446.19,199.58c0-16.04-8.94-28.96-24.99-28.96s-24.99,12.92-24.99,28.96,8.94,29.25,24.99,29.25,24.99-13.2,24.99-29.25Z"/>
        <path d="M487.79,250.68v-101.93h41.74c27.54,0,43.3,12.35,43.3,34.07,0,13.06-7.81,23.85-21.58,29.67l24.99,38.19h-31.94l-20.87-33.93h-8.8v33.93h-26.83ZM514.62,194.61h13.77c11.93,0,17.46-3.69,17.46-11.78s-5.54-11.93-17.46-11.93h-13.77v23.71Z"/>
        <path d="M610.31,250.68v-77.66h-31.23v-24.28h89.3v24.28h-31.23v77.66h-26.83Z"/>
        <path d="M735.95,250.68h-29.25l-36.06-101.93h29.1l22.43,70.56,23.14-70.56h26.97l-36.34,101.93Z"/>
        <path d="M854.49,250.68h-72.12v-101.93h71.13v23.28h-44.29v14.62h40.18v23.28h-40.18v17.46h45.29v23.28Z"/>
        <path d="M908.16,252.1c-26.55,0-43.58-14.05-45.43-36.63h27.12c.28,9.65,6.67,15.76,17.75,15.76,9.23,0,15.33-3.55,15.33-9.94,0-4.4-4.4-7.67-10.36-8.8l-18.6-3.55c-16.33-3.12-27.12-12.64-27.12-29.1,0-19.02,16.75-32.37,39.61-32.37,24.28,0,41.74,13.91,43.3,35.92h-27.12c-.71-9.23-6.96-15.19-15.9-15.19-7.95,0-12.78,4.26-12.78,9.8,0,4.54,4.54,7.24,9.94,8.23l19.73,3.83c18.17,3.55,27.83,12.49,27.83,27.26,0,21.01-16.75,34.78-43.3,34.78Z"/>
        <path d="M985.81,250.68v-77.66h-31.23v-24.28h89.3v24.28h-31.23v77.66h-26.83Z"/>
      </g>
      <g>
        <path class="cls-3" d="M185.15,352.39c6.03,0,12.28-.44,18.09-1.31,12.55-1.86,24.49-5.65,35.54-11.09,12.01-5.9,22.97-13.75,32.49-23.14,1.03-1.03,2.04-2.06,3.05-3.12,8.98-9.5,16.55-20.42,22.38-32.42,5.34-11.04,9.21-22.97,11.31-35.54,0,0,1.87-11.11,1.85-22.21-.05-24.03-9.11-47.01-11.87-53.65-3.12,7.79-9.03,19.79-19.99,31.7-11.15,12.11-22.86,19.03-30.44,22.77.05.87.11,2.13.11,3.63,0,6.18-.9,12.14-2.58,17.77-1.5,5.06-3.64,9.85-6.31,14.28-5.24,8.7-12.56,16.01-21.25,21.25-4.43,2.67-9.22,4.81-14.28,6.31-7.28,2.16-13.64,2.6-18.09,2.58-4.45.03-10.81-.42-18.09-2.58-5.06-1.5-9.85-3.64-14.28-6.31-8.7-5.24-16.01-12.56-21.25-21.25-2.67-4.43-4.81-9.22-6.31-14.28-1.68-5.63-2.58-11.59-2.58-17.77,0-1.51.06-2.76.11-3.63-7.58-3.74-19.29-10.66-30.44-22.77-10.96-11.9-16.87-23.9-19.99-31.7-2.75,6.64-11.82,29.63-11.87,53.65-.02,11.1,1.85,22.21,1.85,22.21,2.1,12.57,5.97,24.5,11.31,35.54,5.82,11.99,13.4,22.92,22.38,32.42,1.01,1.06,2.02,2.09,3.05,3.12,9.52,9.39,20.47,17.24,32.49,23.14,11.05,5.44,22.99,9.23,35.54,11.09,5.8.87,12.05,1.31,18.09,1.31"/>
        <path d="M185.15,94.75c5.86,0,10.62.39,14.06.78,1.43.16,2.77.34,4.02.53,9.5,1.4,18.65,3.92,27.32,7.42l49.75-42.61,5.79,86.99v.03c-8.76,13.16-21.73,29.74-40.21,45.96-22.41,19.69-44.58,31.53-60.75,38.6-16.17-7.06-38.34-18.91-60.75-38.6-18.48-16.23-31.44-32.8-40.22-45.96v-.03s5.8-86.99,5.8-86.99l49.75,42.61c8.68-3.5,17.83-6.02,27.32-7.42,1.25-.19,2.6-.36,4.02-.53,3.44-.39,8.2-.77,14.06-.78"/>
      </g>
    </g>
  </g>
</svg>