<svg width="66" height="66" viewBox="0 0 66 66" fill="none" xmlns="http://www.w3.org/2000/svg">
<circle cx="33" cy="33" r="33" fill="#775CFF"/>
<path d="M33 40C33 36.134 36.134 33 40 33C43.866 33 47 36.134 47 40V47H33V40Z" fill="url(#paint0_linear_47_100)"/>
<path d="M19 19H26C29.866 19 33 22.134 33 26C33 29.866 29.866 33 26 33H19V19Z" fill="url(#paint1_linear_47_100)"/>
<path d="M19 33H20.4C25.6496 33 28.2744 33 30.1145 34.3369C30.7088 34.7686 31.2314 35.2912 31.6631 35.8855C33 37.7256 33 40.3504 33 45.6V47H19V33Z" fill="url(#paint2_linear_47_100)"/>
<path d="M33 26C33 22.134 36.134 19 40 19C43.866 19 47 22.134 47 26C47 29.866 43.866 33 40 33C36.134 33 33 29.866 33 26Z" fill="url(#paint3_linear_47_100)"/>
<defs>
<linearGradient id="paint0_linear_47_100" x1="33" y1="33" x2="47" y2="47.5" gradientUnits="userSpaceOnUse">
<stop stop-color="white" stop-opacity="0.9"/>
<stop offset="1" stop-color="white" stop-opacity="0.4"/>
</linearGradient>
<linearGradient id="paint1_linear_47_100" x1="26.7778" y1="19" x2="26.7778" y2="33" gradientUnits="userSpaceOnUse">
<stop stop-color="white" stop-opacity="0.4"/>
<stop offset="1" stop-color="white" stop-opacity="0.8"/>
</linearGradient>
<linearGradient id="paint2_linear_47_100" x1="26.7778" y1="33" x2="26.7778" y2="47" gradientUnits="userSpaceOnUse">
<stop stop-color="white" stop-opacity="0.4"/>
<stop offset="1" stop-color="white" stop-opacity="0.8"/>
</linearGradient>
<linearGradient id="paint3_linear_47_100" x1="40" y1="33" x2="40" y2="19" gradientUnits="userSpaceOnUse">
<stop offset="0.260348" stop-color="#F6F6F6" stop-opacity="0.4"/>
<stop offset="1" stop-color="white" stop-opacity="0.8"/>
</linearGradient>
</defs>
</svg>
