<svg width="66" height="66" viewBox="0 0 66 66" fill="none" xmlns="http://www.w3.org/2000/svg">
<circle cx="33" cy="33" r="33" fill="#CDFF4E"/>
<path d="M19 24.4C19 22.1502 19 21.0252 19.5729 20.2366C19.758 19.982 19.982 19.758 20.2366 19.5729C21.0252 19 22.1502 19 24.4 19H41.6C43.8498 19 44.9748 19 45.7634 19.5729C46.018 19.758 46.242 19.982 46.4271 20.2366C47 21.0252 47 22.1502 47 24.4V28H19V24.4Z" fill="url(#paint0_linear_40_161)"/>
<path d="M19 28H26V47H24.4C22.1502 47 21.0252 47 20.2366 46.4271C19.982 46.242 19.758 46.018 19.5729 45.7634C19 44.9748 19 43.8498 19 41.6V28Z" fill="url(#paint1_linear_40_161)"/>
<path opacity="0.55" d="M26 28H47V41.6C47 43.8498 47 44.9748 46.4271 45.7634C46.242 46.018 46.018 46.242 45.7634 46.4271C44.9748 47 43.8498 47 41.6 47H26V28Z" fill="url(#paint2_linear_40_161)"/>
<defs>
<linearGradient id="paint0_linear_40_161" x1="19" y1="23.5" x2="47" y2="23.5" gradientUnits="userSpaceOnUse">
<stop offset="0.327511" stop-color="white" stop-opacity="0.9"/>
<stop offset="1" stop-color="white" stop-opacity="0.4"/>
</linearGradient>
<linearGradient id="paint1_linear_40_161" x1="22.8889" y1="28" x2="22.8889" y2="47" gradientUnits="userSpaceOnUse">
<stop stop-color="white" stop-opacity="0.4"/>
<stop offset="1" stop-color="white" stop-opacity="0.8"/>
</linearGradient>
<linearGradient id="paint2_linear_40_161" x1="35.8" y1="47" x2="35.8" y2="27.4722" gradientUnits="userSpaceOnUse">
<stop stop-color="#F6F6F6" stop-opacity="0.4"/>
<stop offset="0.966667" stop-color="white" stop-opacity="0.8"/>
</linearGradient>
</defs>
</svg>
