<svg width="167" height="52" viewBox="0 0 167 52" fill="none" xmlns="http://www.w3.org/2000/svg">
<path d="M22.7481 36.8974C22.7481 37.9464 22.369 38.8508 21.6107 39.6104C20.8886 40.3339 20.0039 40.6956 18.9568 40.6956H7.58273C6.5356 40.6956 5.6329 40.3339 4.87463 39.6104C4.15246 38.8508 3.79138 37.9464 3.79138 36.8974V25.5026C3.79138 24.4536 4.15246 23.5673 4.87463 22.8438C5.6329 22.0842 6.5356 21.7043 7.58273 21.7043H18.9568C20.0039 21.7043 20.8886 22.0842 21.6107 22.8438C22.369 23.5673 22.7481 24.4536 22.7481 25.5026V36.8974ZM18.9568 37.44V24.96H7.58273V37.44H18.9568ZM45.5089 29.3009H41.7175V24.96H34.1348V40.6956H30.3435V21.7043H34.1348V24.4174L36.8429 21.7043H41.7175C42.7647 21.7043 43.6493 22.0842 44.3715 22.8438C45.1297 23.5673 45.5089 24.4536 45.5089 25.5026V29.3009ZM63.9051 40.6956H56.3224C55.2752 40.6956 54.3725 40.3339 53.6143 39.6104C52.8921 38.8508 52.531 37.9464 52.531 36.8974V24.96H47.1148L50.3645 21.7043H52.531V17.9061L56.3224 14.1078V21.7043H63.9051V24.96H56.3224V37.44H63.9051V40.6956ZM86.9283 21.7043L79.5622 40.6956H74.0377L66.8883 21.7043H71.2212L76.3666 37.5485H77.4499L82.5953 21.7043H86.9283ZM111.026 40.6956H95.8607C94.8136 40.6956 93.9109 40.3339 93.1526 39.6104C92.4305 38.8508 92.0694 37.9464 92.0694 36.8974V25.5026C92.0694 24.4536 92.4305 23.5673 93.1526 22.8438C93.9109 22.0842 94.8136 21.7043 95.8607 21.7043H107.235C108.282 21.7043 109.167 22.0842 109.889 22.8438C110.647 23.5673 111.026 24.4536 111.026 25.5026V29.3009L107.235 33.0991H96.4024L99.6521 29.8435H107.235V24.96H95.8607V37.44H111.026V40.6956ZM132.418 21.7043L129.114 24.96H119.961V29.3009H127.544C128.591 29.3009 129.475 29.6807 130.198 30.4403C130.956 31.1638 131.335 32.0501 131.335 33.0991V36.8974C131.335 37.9464 130.956 38.8508 130.198 39.6104C129.475 40.3339 128.591 40.6956 127.544 40.6956H116.17V37.44H127.544V32.5565H119.961C118.914 32.5565 118.011 32.1948 117.253 31.4713C116.531 30.7116 116.17 29.8073 116.17 28.7583V25.5026C116.17 24.4536 116.531 23.5673 117.253 22.8438C118.011 22.0842 118.914 21.7043 119.961 21.7043H132.418ZM150.543 40.6956H142.961C141.913 40.6956 141.011 40.3339 140.253 39.6104C139.53 38.8508 139.169 37.9464 139.169 36.8974V24.96H133.753L137.003 21.7043H139.169V17.9061L142.961 14.1078V21.7043H150.543V24.96H142.961V37.44H150.543V40.6956ZM161.38 40.6956H156.505V36.3548H161.38V40.6956Z" fill="white"/>
<path d="M10.1554 18.0869L13.0871 23.1739H7.22382L10.1554 18.0869Z" fill="white"/>
<path d="M16.9257 18.0869L19.8573 23.1739H13.9941L16.9257 18.0869Z" fill="white"/>
<path d="M98.1689 18.0869L101.1 23.1739H95.2374L98.1689 18.0869Z" fill="white"/>
<path d="M104.939 18.0869L107.871 23.1739H102.008L104.939 18.0869Z" fill="white"/>
</svg>
