<svg width="40" height="40" viewBox="0 0 40 40" fill="none" xmlns="http://www.w3.org/2000/svg">
<circle cx="20" cy="20" r="20" fill="#CDFF4E"/>
<path d="M28.2303 19.0786C28.2019 18.9584 28.1442 18.847 28.0625 18.7545C27.9807 18.6619 27.8773 18.591 27.7615 18.548L22.3606 16.522L23.735 9.64734C23.7661 9.48761 23.7444 9.32209 23.6732 9.17576C23.602 9.02943 23.4851 8.91022 23.3403 8.83614C23.1954 8.76205 23.0303 8.7371 22.87 8.76505C22.7097 8.793 22.5628 8.87234 22.4515 8.99109L11.9515 20.2411C11.8663 20.3309 11.8046 20.4405 11.772 20.5601C11.7394 20.6796 11.7369 20.8053 11.7648 20.926C11.7926 21.0467 11.8499 21.1587 11.9316 21.2518C12.0133 21.345 12.1167 21.4164 12.2328 21.4598L17.6356 23.4858L16.265 30.353C16.2338 30.5127 16.2555 30.6782 16.3267 30.8245C16.3979 30.9709 16.5148 31.0901 16.6597 31.1642C16.8046 31.2382 16.9696 31.2632 17.1299 31.2352C17.2903 31.2073 17.4371 31.128 17.5484 31.0092L28.0484 19.7592C28.1321 19.6693 28.1925 19.5603 28.2242 19.4416C28.2559 19.3229 28.258 19.1983 28.2303 19.0786ZM18.2534 28.0626L19.235 23.152C19.2701 22.9779 19.2423 22.7969 19.1564 22.6413C19.0706 22.4858 18.9323 22.3658 18.7662 22.3026L13.8125 20.4417L21.7456 11.9423L20.765 16.853C20.7298 17.0271 20.7577 17.2081 20.8435 17.3636C20.9294 17.5192 21.0676 17.6392 21.2337 17.7023L26.1837 19.5586L18.2534 28.0626Z" fill="#1A1919"/>
</svg>
