<svg width="32" height="32" viewBox="0 0 32 32" fill="none" xmlns="http://www.w3.org/2000/svg">
<g clip-path="url(#clip0_1499_932)">
<path fill-rule="evenodd" clip-rule="evenodd" d="M16 32C24.8366 32 32 24.8366 32 16C32 7.16344 24.8366 0 16 0C7.16344 0 0 7.16344 0 16C0 24.8366 7.16344 32 16 32ZM7.93549 16.1613C7.93549 14.3797 9.37973 12.9355 11.1613 12.9355C11.8023 12.9355 12.3969 13.1214 12.8976 13.442C13.3477 13.7302 13.9462 13.5989 14.2344 13.1488C14.5226 12.6986 14.3913 12.1001 13.9411 11.812C13.1382 11.2979 12.1831 11 11.1613 11C8.31079 11 6 13.3108 6 16.1613C6 19.0118 8.31079 21.3226 11.1613 21.3226C13.3787 21.3226 15.2695 19.9242 16 17.9614C16.7305 19.9242 18.6214 21.3226 20.8388 21.3226C23.6893 21.3226 26 19.0118 26 16.1613C26 13.3108 23.6893 11 20.8388 11C18.319 11 16.221 12.8056 15.768 15.1936H11.8064C11.272 15.1936 10.8387 15.6268 10.8387 16.1613C10.8387 16.6958 11.272 17.129 11.8064 17.129H14.2394C13.8284 18.4378 12.6057 19.3871 11.1613 19.3871C9.37973 19.3871 7.93549 17.9429 7.93549 16.1613ZM17.6129 16.1613C17.6129 14.3797 19.0571 12.9355 20.8388 12.9355C22.6203 12.9355 24.0645 14.3797 24.0645 16.1613C24.0645 17.9429 22.6203 19.3871 20.8388 19.3871C19.0571 19.3871 17.6129 17.9429 17.6129 16.1613Z" fill="#1A1919"/>
</g>
<defs>
<clipPath id="clip0_1499_932">
<rect width="32" height="32" fill="white"/>
</clipPath>
</defs>
</svg>
