<svg width="32" height="32" viewBox="0 0 32 32" fill="none" xmlns="http://www.w3.org/2000/svg">
<path d="M4.47628 22.9394L5.53352 23.5498L17.3117 3.15006L16.2544 2.53964L4.47628 22.9394Z" fill="#1A1919"/>
<path d="M27.7904 21.3101H4.23409V22.5309H27.7904V21.3101Z" fill="#1A1919"/>
<path d="M4.7002 21.9955L16.4828 28.7983L17.0932 27.7411L5.31062 20.9382L4.7002 21.9955Z" fill="#1A1919"/>
<path d="M14.9357 4.26647L26.7182 11.0693L27.3286 10.0121L15.5461 3.20923L14.9357 4.26647Z" fill="#1A1919"/>
<path d="M4.70332 10.0072L5.31374 11.0645L17.0963 4.26159L16.4859 3.20435L4.70332 10.0072Z" fill="#1A1919"/>
<path d="M14.7228 3.15055L26.5009 23.5503L27.5582 22.9399L15.78 2.54013L14.7228 3.15055Z" fill="#1A1919"/>
<path d="M6.38896 9.19727H5.16812V22.803H6.38896V9.19727Z" fill="#1A1919"/>
<path d="M26.8636 9.19727H25.6428V22.803H26.8636V9.19727Z" fill="#1A1919"/>
<path d="M15.7416 27.3587L16.2748 28.2822L26.5225 22.3656L25.9893 21.4421L15.7416 27.3587Z" fill="#1A1919"/>
<path d="M28.4817 23.1999C27.7757 24.4281 26.2018 24.8473 24.9736 24.1413C23.7454 23.4353 23.3262 21.8614 24.0323 20.6332C24.7383 19.405 26.3121 18.9858 27.5403 19.6918C28.7759 20.4052 29.1951 21.9717 28.4817 23.1999Z" fill="#1A1919"/>
<path d="M7.99216 11.3669C7.28613 12.5951 5.71228 13.0143 4.48409 12.3083C3.2559 11.6022 2.83669 10.0284 3.54272 8.8002C4.24875 7.57201 5.8226 7.15281 7.05079 7.85884C8.27898 8.57222 8.69819 10.1387 7.99216 11.3669Z" fill="#1A1919"/>
<path d="M3.55015 23.1999C2.84412 21.9717 3.26333 20.4052 4.49152 19.6918C5.71971 18.9858 7.28621 19.405 7.99959 20.6332C8.70562 21.8614 8.28641 23.4279 7.05822 24.1413C5.82267 24.8473 4.25618 24.4281 3.55015 23.1999Z" fill="#1A1919"/>
<path d="M24.0395 11.3669C23.3335 10.1387 23.7527 8.57222 24.9809 7.85884C26.2091 7.15281 27.7756 7.57201 28.4889 8.8002C29.195 10.0284 28.7758 11.5949 27.5476 12.3083C26.3194 13.0143 24.7455 12.5951 24.0395 11.3669Z" fill="#1A1919"/>
<path d="M16.0158 30.4C14.5964 30.4 13.4491 29.2527 13.4491 27.8333C13.4491 26.4139 14.5964 25.2666 16.0158 25.2666C17.4352 25.2666 18.5825 26.4139 18.5825 27.8333C18.5825 29.2454 17.4352 30.4 16.0158 30.4Z" fill="#1A1919"/>
<path d="M16.0158 6.7335C14.5964 6.7335 13.4491 5.58621 13.4491 4.1668C13.4491 2.74739 14.5964 1.6001 16.0158 1.6001C17.4352 1.6001 18.5825 2.74739 18.5825 4.1668C18.5825 5.58621 17.4352 6.7335 16.0158 6.7335Z" fill="#1A1919"/>
</svg>
