<svg width="32" height="32" viewBox="0 0 32 32" fill="none" xmlns="http://www.w3.org/2000/svg">
<g clip-path="url(#clip0_1498_381)">
<path fill-rule="evenodd" clip-rule="evenodd" d="M32 16C32 24.8366 24.8366 32 16 32C7.16344 32 0 24.8366 0 16C0 7.16344 7.16344 0 16 0C24.8366 0 32 7.16344 32 16ZM17.0841 8.10378C17.891 8.93805 19.4956 10.597 20.2769 14.045C20.378 14.6309 20.4308 15.2242 20.4347 15.8188C20.4531 19.3831 18.5722 21.6187 17.526 22.5853L17.5035 22.6056C17.3051 22.7901 17.0952 22.9618 16.875 23.1197L16.8438 23.14C16.6636 23.95 16.528 24.7692 16.4375 25.5941H16.0519C15.9494 24.4812 15.8053 23.428 15.7895 23.3123C15.7887 23.3067 15.7883 23.3033 15.7881 23.3022V23.3056L15.7322 23.2659C15.24 22.9069 11.6006 20.0906 11.826 15.3644C12.0675 10.2969 15.0369 7.80531 15.6156 7.35281C15.9894 6.95406 16.0044 6.80156 16.0335 6.40625C16.0396 6.42055 16.0452 6.43516 16.0495 6.4467C16.0514 6.45155 16.053 6.45586 16.0544 6.45937C16.0544 6.45937 16.3394 7.1625 16.6206 7.55781C16.679 7.68498 16.8472 7.85884 17.0841 8.10378ZM16.2297 13.97C16.011 13.9688 16.011 20.5975 16.011 20.5975C16.011 21.1131 16.3175 22.4838 16.6213 22.5203C16.6213 22.5203 16.4003 13.97 16.2297 13.97Z" fill="#1A1919"/>
</g>
<defs>
<clipPath id="clip0_1498_381">
<rect width="32" height="32" fill="white"/>
</clipPath>
</defs>
</svg>
