<svg width="32" height="32" viewBox="0 0 32 32" fill="none" xmlns="http://www.w3.org/2000/svg">
<g clip-path="url(#clip0_1498_841)">
<path fill-rule="evenodd" clip-rule="evenodd" d="M18.842 0C18.6106 0 18.3957 0.049586 18.1974 0.115697C18.6188 0.396674 18.8502 0.768558 18.9659 1.19002C18.9742 1.24787 18.9907 1.28919 18.999 1.34704C19.0073 1.39662 19.0155 1.44621 19.0155 1.49579C19.0486 2.22303 18.8254 2.31393 18.6684 2.74366C18.4288 3.29736 18.4949 3.89237 18.7841 4.37168C18.8089 4.42953 18.842 4.49564 18.8833 4.55349C18.5693 2.46269 20.313 2.14865 20.6353 1.49579C20.6601 0.925574 20.189 0.545427 19.8171 0.280977C19.4618 0.0661127 19.1395 0 18.842 0ZM21.4699 0.471051C21.4369 0.661124 21.4617 0.611539 21.4534 0.710709C21.4451 0.77682 21.4451 0.859463 21.4369 0.925573C21.4204 0.991686 21.4038 1.0578 21.3791 1.12391C21.3625 1.19002 21.3377 1.25614 21.3129 1.32225C21.2799 1.38836 21.2551 1.44621 21.222 1.51232C21.1972 1.54539 21.1807 1.57843 21.1559 1.61149C21.1394 1.63628 21.1229 1.66107 21.1063 1.68587C21.065 1.74372 21.0237 1.80156 20.9824 1.85115C20.9328 1.90073 20.8915 1.95858 20.8336 1.9999V2.00818C20.784 2.0495 20.7345 2.09908 20.6766 2.1404C20.5031 2.27262 20.3047 2.37179 20.1229 2.49575C20.0651 2.53707 20.0072 2.57013 19.9576 2.61972C19.8998 2.66104 19.8502 2.70235 19.8006 2.75194C19.7428 2.80152 19.7015 2.85111 19.6519 2.90896C19.6105 2.95854 19.561 3.01639 19.5279 3.07424C19.4866 3.13209 19.4453 3.18994 19.4122 3.24778C19.3791 3.31389 19.3544 3.37174 19.3213 3.43786C19.2965 3.50397 19.2717 3.56182 19.2552 3.62793C19.2304 3.70231 19.2139 3.76842 19.1973 3.83453C19.1891 3.8676 19.1891 3.90891 19.1808 3.94196C19.1725 3.97503 19.1725 4.00807 19.1643 4.04113C19.1643 4.10724 19.156 4.18162 19.156 4.24773C19.156 4.29732 19.156 4.3469 19.1643 4.39649C19.1643 4.4626 19.1726 4.52871 19.1891 4.60309C19.1974 4.6692 19.2139 4.73531 19.2304 4.80143C19.2552 4.86754 19.2718 4.93365 19.2965 4.99976C19.3131 5.04108 19.3379 5.0824 19.3544 5.11546L17.4537 4.37996C17.1314 4.28905 16.8173 4.20641 16.495 4.13204C16.3215 4.09072 16.1479 4.0494 15.9744 4.00808C15.4785 3.90891 14.9744 3.83453 14.4703 3.78495C14.4538 3.78495 14.4455 3.77667 14.429 3.77667C13.9332 3.72709 13.4456 3.7023 12.9498 3.7023C12.5861 3.7023 12.2225 3.71881 11.8672 3.74362C11.3631 3.77669 10.8589 3.84279 10.3548 3.92542C10.2309 3.94194 10.1069 3.96675 9.98296 3.99154C9.72677 4.04112 9.47885 4.09897 9.23919 4.15682C9.11523 4.18989 8.99127 4.22293 8.86731 4.25599C8.74335 4.30557 8.62766 4.36342 8.51196 4.413C8.42105 4.45432 8.33015 4.49564 8.23924 4.53697C8.22273 4.54524 8.20617 4.54524 8.19792 4.55348C8.11528 4.5948 8.0409 4.62785 7.96653 4.66918C7.94174 4.67745 7.92521 4.68569 7.90868 4.69397C7.81778 4.73529 7.72687 4.78487 7.6525 4.82619C7.59465 4.85099 7.5368 4.88404 7.48722 4.90884C7.46242 4.92535 7.42937 4.94191 7.41284 4.95016C7.33846 4.99148 7.26409 5.03279 7.19797 5.07412C7.1236 5.11544 7.05748 5.15675 6.99963 5.19807C6.94179 5.2394 6.88394 5.27245 6.83435 5.31377C6.82607 5.32205 6.81784 5.32205 6.80956 5.33029C6.75998 5.36336 6.70213 5.40466 6.65255 5.44599C6.65255 5.44599 6.64427 5.45426 6.63603 5.4625C6.59471 5.49557 6.55339 5.52861 6.51207 5.56167C6.49555 5.56994 6.479 5.58646 6.46248 5.59474C6.42117 5.62781 6.37985 5.66911 6.33853 5.70217C6.33025 5.71869 6.31374 5.72696 6.30546 5.73524C6.25587 5.78482 6.20629 5.82614 6.1567 5.87573C6.14843 5.87573 6.14843 5.88401 6.14019 5.89224C6.0906 5.93356 6.04102 5.98315 5.99143 6.03273C5.98316 6.04101 5.98316 6.04925 5.97492 6.04925C5.9336 6.09057 5.89228 6.13189 5.85096 6.18147C5.83444 6.19799 5.80964 6.21454 5.79311 6.23105C5.75179 6.28064 5.70221 6.33022 5.65262 6.37981C5.64434 6.39633 5.62783 6.4046 5.61955 6.42113C5.55344 6.48724 5.49559 6.55336 5.42948 6.61947C5.4212 6.62774 5.41297 6.63598 5.40469 6.64426C5.27246 6.78475 5.13197 6.92524 4.98322 7.0492C4.83447 7.18142 4.67745 7.30538 4.52043 7.41281C4.35515 7.52851 4.19814 7.62768 4.02459 7.72685C3.85931 7.81775 3.68576 7.90039 3.50396 7.97477C3.33041 8.04915 3.1486 8.11526 2.96679 8.17311C2.6197 8.24748 2.26435 8.38797 1.95858 8.41276C1.89247 8.41276 1.81809 8.42928 1.75198 8.43756C1.6776 8.45407 1.61149 8.47063 1.54538 8.48714C1.47927 8.51193 1.41315 8.53673 1.34704 8.56152C1.28093 8.58631 1.21482 8.61937 1.1487 8.65242C1.09085 8.69374 1.02474 8.7268 0.966893 8.76812C0.909046 8.80944 0.851196 8.85902 0.801612 8.90861C0.743765 8.94993 0.685916 9.00778 0.636331 9.05736C0.586746 9.11521 0.537162 9.1648 0.495842 9.22264C0.454523 9.28875 0.404938 9.3466 0.371881 9.41272C0.330561 9.47057 0.289242 9.53668 0.256184 9.60279C0.223115 9.67717 0.190073 9.74328 0.16528 9.81765C0.140488 9.88377 0.115696 9.95814 0.0909034 10.0325C0.0743883 10.0986 0.0578341 10.1647 0.0495843 10.2309C0.0495843 10.2391 0.0413075 10.2474 0.0413075 10.2556C0.0247922 10.33 0.0247921 10.4292 0.016515 10.4788C0.00823827 10.5366 0 10.5862 0 10.6441C0 10.6771 2.57266e-08 10.7184 0.00827679 10.7515C0.0165536 10.8093 0.0247918 10.8589 0.0413461 10.9085C0.0578613 10.9581 0.0744155 11.0077 0.0991923 11.0573V11.0655C0.123985 11.1151 0.157042 11.1647 0.190096 11.2143C0.223166 11.2639 0.256212 11.3135 0.297531 11.363C0.33885 11.4044 0.388435 11.4539 0.438019 11.4953C0.487604 11.5449 0.537189 11.5862 0.595035 11.6275C0.793373 11.801 0.842958 11.8589 1.09914 11.9911C1.14046 12.0159 1.18179 12.0324 1.23137 12.0572C1.23965 12.0572 1.24789 12.0655 1.25616 12.0655C1.25616 12.082 1.25616 12.0903 1.26444 12.1068C1.27272 12.1729 1.28923 12.239 1.30576 12.3052C1.32227 12.3795 1.34708 12.4457 1.37188 12.5035C1.39667 12.5531 1.41319 12.6027 1.43799 12.6523C1.44626 12.6688 1.4545 12.6853 1.46278 12.6936C1.49585 12.7597 1.52889 12.8175 1.56194 12.8754C1.60327 12.9332 1.64459 12.9911 1.68591 13.0489C1.72723 13.0985 1.77681 13.1564 1.82639 13.2059C1.87598 13.2555 1.92556 13.2968 1.98341 13.3464C1.98341 13.3464 1.99169 13.3547 1.99993 13.3547C2.04951 13.396 2.0991 13.4374 2.14868 13.4704C2.20653 13.5117 2.26438 13.5448 2.33049 13.5778C2.38834 13.6109 2.45445 13.644 2.52056 13.6688C2.57015 13.6935 2.628 13.7101 2.68585 13.7266C2.69412 13.7349 2.70236 13.7349 2.71891 13.7431C2.75198 13.7514 2.79329 13.7596 2.82635 13.7679C2.80155 14.2142 2.79328 14.6356 2.85942 14.7844C2.93379 14.9497 3.29741 14.4456 3.66103 13.8671C3.61144 14.4373 3.57838 15.1067 3.66103 15.305C3.75193 15.5116 4.24777 14.867 4.6775 14.1563C10.5367 12.801 15.8836 16.8504 16.4455 22.5691C16.3381 21.6766 15.239 21.1808 14.7349 21.3047C14.4869 21.9163 14.0655 22.7013 13.3878 23.1889C13.4457 22.6435 13.4209 22.0815 13.3052 21.5361C13.1234 22.2964 12.768 23.0071 12.2804 23.6187C11.4953 23.6765 10.7103 23.2964 10.2971 22.7261C10.264 22.7013 10.2557 22.6518 10.2309 22.6187C10.2062 22.5609 10.1814 22.503 10.1648 22.4452C10.14 22.3873 10.1235 22.3295 10.1152 22.2716C10.107 22.2138 10.107 22.1559 10.107 22.0898C10.107 22.0485 10.107 22.0072 10.107 21.9658C10.1152 21.908 10.1318 21.8501 10.1483 21.7923C10.1648 21.7345 10.1814 21.6766 10.2061 21.6188C10.2392 21.5609 10.264 21.5031 10.3053 21.4452C10.4458 21.0485 10.4458 20.7262 10.1896 20.5362C10.14 20.5031 10.0904 20.4783 10.0326 20.4535C9.99952 20.4452 9.95821 20.4287 9.92516 20.4205C9.90037 20.4122 9.88384 20.4039 9.85905 20.3957C9.8012 20.3791 9.74335 20.3626 9.6855 20.3543C9.62765 20.3378 9.56981 20.3295 9.51196 20.3295C9.45411 20.3213 9.38799 20.313 9.33015 20.313C9.28883 20.313 9.24751 20.3213 9.20619 20.3213C9.14008 20.3213 9.08223 20.3296 9.02438 20.3461C8.96653 20.3544 8.90868 20.3626 8.85083 20.3792C8.79299 20.3957 8.73514 20.4122 8.67729 20.437C8.61944 20.4618 8.56986 20.4866 8.51201 20.5114C8.46243 20.5362 8.41284 20.5692 8.35499 20.594C6.42947 21.8502 7.57817 24.7922 8.89215 25.6434C8.39631 25.7343 7.89221 25.8417 7.75172 25.9491C7.74344 25.9574 7.7352 25.9657 7.7352 25.9657C8.09056 26.1805 8.46244 26.3623 8.85084 26.5193C9.37975 26.6929 9.9417 26.8499 10.1896 26.916V26.9243C10.8755 27.0648 11.5697 27.1144 12.2722 27.073C15.9331 26.8169 18.933 24.0319 19.4784 20.3626C19.4949 20.437 19.5115 20.5031 19.528 20.5775C19.5528 20.7263 19.5858 20.8833 19.6024 21.0403V21.0486C19.6189 21.123 19.6272 21.1973 19.6354 21.2634V21.2965C19.6437 21.3709 19.652 21.4453 19.652 21.5114C19.6602 21.6023 19.6685 21.6932 19.6685 21.7841V21.9163C19.6685 21.9576 19.6768 22.0072 19.6768 22.0485C19.6768 22.0981 19.6685 22.1477 19.6685 22.1973V22.313C19.6685 22.3708 19.6602 22.4204 19.6602 22.4783C19.6602 22.5113 19.6602 22.5444 19.6519 22.5857C19.6519 22.6436 19.6436 22.7014 19.6436 22.7675C19.6354 22.7923 19.6354 22.8171 19.6354 22.8419C19.6271 22.908 19.6188 22.9658 19.6106 23.032C19.6106 23.0568 19.6106 23.0815 19.6023 23.1063C19.594 23.189 19.5775 23.2634 19.5692 23.346V23.3543V23.3626C19.5527 23.4369 19.5361 23.5196 19.5196 23.5939V23.6187C19.5031 23.6931 19.4866 23.7675 19.47 23.8419C19.47 23.8502 19.4618 23.8667 19.4618 23.8749C19.4453 23.9493 19.4287 24.0237 19.4039 24.0981V24.1229C19.3791 24.2055 19.3543 24.2799 19.3378 24.3543C19.3295 24.3625 19.3295 24.3708 19.3295 24.3708C19.3047 24.4534 19.28 24.536 19.2552 24.6187C19.2221 24.7013 19.1973 24.7757 19.1643 24.8583C19.1312 24.941 19.1064 25.0236 19.0734 25.098C19.0403 25.1806 19.0072 25.255 18.9742 25.3377H18.9659C18.9328 25.412 18.8998 25.4947 18.8585 25.5691C18.8502 25.5938 18.8419 25.6104 18.8337 25.6269C18.8254 25.6352 18.8254 25.6434 18.8172 25.6517C18.28 26.7343 17.4866 27.6847 16.495 28.4284C16.4288 28.4697 16.3627 28.5193 16.2966 28.5689C16.2801 28.5854 16.2553 28.5937 16.2388 28.6102C16.1809 28.6515 16.1231 28.6929 16.057 28.7342L16.0818 28.7838H16.09C16.2057 28.7673 16.3214 28.7507 16.4371 28.7342H16.4454C16.6603 28.7011 16.8751 28.6598 17.09 28.6185C17.1478 28.6102 17.214 28.5937 17.2718 28.5772C17.3131 28.5689 17.3462 28.5607 17.3875 28.5524C17.4453 28.5441 17.5032 28.5276 17.561 28.5193C17.6106 28.5028 17.6602 28.4945 17.7098 28.478C18.5362 28.2796 19.3378 28.0069 20.1064 27.6846C18.7924 29.4779 17.0321 30.9241 14.9744 31.8745C15.9248 31.8084 16.8751 31.6514 17.7924 31.3869C21.1229 30.4035 23.9244 28.1639 25.602 25.1476C25.2631 27.0566 24.5028 28.8747 23.3789 30.4614C24.1805 29.9325 24.916 29.3209 25.5854 28.6267C27.4366 26.6929 28.6514 24.2385 29.0646 21.6023C29.3456 22.908 29.4282 24.2551 29.3043 25.5856C35.2709 17.2637 29.8001 8.636 27.511 6.36339C27.5027 6.34688 27.4944 6.3386 27.4944 6.32207C27.4862 6.33034 27.4862 6.33034 27.4862 6.33859C27.4862 6.33031 27.4862 6.33031 27.4779 6.32207C27.4779 6.42124 27.4696 6.52041 27.4614 6.61957C27.4366 6.80965 27.4118 6.99146 27.3787 7.17327C27.3374 7.35508 27.2878 7.53688 27.2382 7.71869C27.1804 7.89224 27.1143 8.07405 27.0399 8.24759C26.9655 8.41287 26.8829 8.58642 26.792 8.7517C26.7011 8.90872 26.6019 9.074 26.4945 9.22275C26.387 9.37977 26.2713 9.52852 26.1556 9.66901C26.0317 9.81776 25.8995 9.94999 25.7672 10.0822C25.6846 10.1566 25.6102 10.2227 25.5276 10.2888C25.4615 10.3467 25.4036 10.3962 25.3375 10.4541C25.1888 10.5698 25.04 10.6772 24.8747 10.7764C24.7177 10.8756 24.5524 10.9747 24.3871 11.0574C24.2136 11.14 24.0401 11.2144 23.8665 11.2888C23.693 11.3549 23.5112 11.4127 23.3293 11.4623C23.1475 11.5119 22.9575 11.5532 22.7757 11.5863C22.5856 11.6193 22.3955 11.6358 22.2137 11.6524C22.0815 11.6607 21.9492 11.6689 21.817 11.6689C21.6269 11.6689 21.4369 11.6524 21.2551 11.6358C21.065 11.6193 20.8749 11.5945 20.6931 11.5532C20.503 11.5201 20.3212 11.4705 20.1394 11.4127H20.1311C20.313 11.3962 20.4948 11.3796 20.6766 11.3466C20.8666 11.3135 21.0485 11.2722 21.2303 11.2226C21.4121 11.173 21.5939 11.1152 21.7674 11.0491C21.9492 10.983 22.1228 10.9003 22.2881 10.8177C22.4616 10.735 22.6186 10.6441 22.7839 10.545C22.9409 10.4375 23.0979 10.3301 23.2467 10.2144C23.3954 10.0987 23.5359 9.97475 23.6682 9.84253C23.8086 9.71856 23.9326 9.57808 24.0566 9.43759C24.1805 9.28884 24.2962 9.14008 24.4037 8.99133C24.4202 8.96654 24.4367 8.93348 24.4532 8.90869C24.5359 8.77646 24.6185 8.64424 24.6929 8.51201C24.7838 8.34673 24.8664 8.18145 24.9408 8.00791C25.0152 7.83436 25.0813 7.66082 25.1392 7.47901C25.197 7.30546 25.2383 7.12365 25.2796 6.94185C25.3127 6.75177 25.3458 6.56996 25.3623 6.38815C25.3788 6.19808 25.3954 6.00801 25.3954 5.8262C25.3954 5.69397 25.3871 5.56175 25.3788 5.42953C25.3623 5.23945 25.3375 5.05764 25.3127 4.87584C25.2797 4.68576 25.2384 4.50395 25.1888 4.32214C25.1309 4.1486 25.0731 3.96679 25.007 3.79325C24.9408 3.6197 24.8582 3.44615 24.7756 3.28087C24.6847 3.11559 24.5938 2.95031 24.4946 2.7933C24.3872 2.63628 24.2797 2.48753 24.164 2.33877C24.0401 2.19828 23.9161 2.05779 23.7839 1.91731C23.7178 1.85119 23.6434 1.77682 23.569 1.71071C23.1971 1.42146 22.8087 1.14875 22.4203 0.900828C22.3625 0.867759 22.3129 0.842978 22.255 0.818185C21.9823 0.644642 21.7261 0.553689 21.4699 0.471051Z" fill="black"/>
</g>
<defs>
<clipPath id="clip0_1498_841">
<rect width="32" height="32" fill="white"/>
</clipPath>
</defs>
</svg>
