<svg width="32" height="32" viewBox="0 0 32 32" fill="none" xmlns="http://www.w3.org/2000/svg">
<path d="M15.0569 1.60785C14.995 1.61348 14.7979 1.63318 14.6205 1.64726C10.53 2.016 6.69842 4.22283 4.27168 7.61471C2.92036 9.50065 2.05608 11.6399 1.72951 13.9059C1.61408 14.6968 1.60001 14.9305 1.60001 16.0029C1.60001 17.0754 1.61408 17.309 1.72951 18.1C2.51215 23.5073 6.36059 28.0504 11.5801 29.7337C12.5147 30.0349 13.5001 30.2404 14.6205 30.3642C15.0569 30.4121 16.9431 30.4121 17.3795 30.3642C19.3136 30.1503 20.952 29.6718 22.568 28.847C22.8157 28.7203 22.8636 28.6866 22.8298 28.6584C22.8073 28.6415 21.7516 27.2257 20.4847 25.5142L18.1818 22.4039L15.2962 18.1337C13.7084 15.7862 12.4021 13.8665 12.3909 13.8665C12.3796 13.8636 12.3683 15.7608 12.3627 18.0774C12.3543 22.1336 12.3514 22.2969 12.3008 22.3926C12.2276 22.5305 12.1713 22.5868 12.053 22.6487C11.9629 22.6938 11.8841 22.7022 11.459 22.7022H10.972L10.8425 22.6206C10.758 22.5671 10.6961 22.4967 10.6538 22.4151L10.5947 22.2884L10.6004 16.6447L10.6088 10.9981L10.6961 10.8884C10.7411 10.8292 10.8368 10.7532 10.9044 10.7167C11.0198 10.6604 11.0649 10.6547 11.5519 10.6547C12.1262 10.6547 12.2219 10.6772 12.3712 10.8405C12.4134 10.8855 13.9758 13.2387 15.8452 16.0733C17.7145 18.9078 20.2707 22.7782 21.5263 24.6782L23.8067 28.132L23.9221 28.056C24.9441 27.3917 26.0251 26.446 26.8809 25.4608C28.7024 23.3693 29.8764 20.8191 30.2705 18.1C30.3859 17.309 30.4 17.0754 30.4 16.0029C30.4 14.9305 30.3859 14.6968 30.2705 13.9059C29.4879 8.49857 25.6394 3.95542 20.4199 2.27215C19.4994 1.97378 18.5197 1.76829 17.4217 1.64444C17.1514 1.61629 15.2906 1.58533 15.0569 1.60785ZM20.952 10.3169C21.0872 10.3845 21.197 10.514 21.2364 10.6491C21.2589 10.7223 21.2645 12.2873 21.2589 15.8143L21.2504 20.8754L20.358 19.5074L19.4628 18.1394V14.4604C19.4628 12.0819 19.474 10.7448 19.4909 10.6801C19.536 10.5224 19.6345 10.3986 19.7696 10.3254C19.885 10.2663 19.9273 10.2607 20.3693 10.2607C20.7859 10.2607 20.8591 10.2663 20.952 10.3169Z" fill="#1A1919"/>
</svg>
