<svg width="32" height="32" viewBox="0 0 32 32" fill="none" xmlns="http://www.w3.org/2000/svg">
<path d="M15.9927 0C15.5364 0 15.0803 0.110192 14.6865 0.331731L2.29883 7.3726C1.49883 7.82798 1 8.69019 1 9.60096V22.375C1 23.2981 1.49883 24.148 2.29883 24.6034L5.55078 26.4495C7.12578 27.2126 7.6874 27.2115 8.3999 27.2115C10.7374 27.2115 12.0742 25.821 12.0742 23.4087V10.2284C12.0742 10.0314 11.9129 9.87019 11.7129 9.87019H10.1504C9.93789 9.87019 9.78662 10.0314 9.78662 10.2284V23.3966C9.78662 24.4797 8.65049 25.5379 6.81299 24.6394L3.41211 22.7067C3.28711 22.6452 3.21191 22.5104 3.21191 22.375V9.61298C3.21191 9.46529 3.28711 9.34067 3.41211 9.26683L15.7998 2.22837C15.9123 2.15452 16.063 2.15452 16.188 2.22837L28.5757 9.26683C28.7007 9.34067 28.7759 9.46558 28.7759 9.60096V22.375C28.7759 22.5104 28.7004 22.6452 28.5879 22.7067L16.188 29.7596C16.0755 29.8212 15.9123 29.8212 15.7998 29.7596L12.6113 27.9014C12.5238 27.8399 12.401 27.8282 12.3135 27.8774C11.426 28.3697 11.2635 28.4309 10.4385 28.7139C10.2385 28.7755 9.92578 28.8982 10.5508 29.2428L14.6865 31.6563C15.0865 31.8778 15.5378 32 15.9878 32C16.4503 32 16.8988 31.8778 17.2988 31.6563L29.7012 24.6034C30.5012 24.148 31 23.2981 31 22.375V9.61298C31 8.6899 30.5012 7.84 29.7012 7.38462L17.2988 0.331731C16.9051 0.110192 16.4489 0 15.9927 0ZM19.3252 9.85337C15.7877 9.85337 13.6758 11.3293 13.6758 13.7909C13.6758 16.4616 15.7738 17.1989 19.1738 17.5312C23.2363 17.9251 23.5488 18.5176 23.5488 19.3053C23.5488 20.6591 22.4382 21.238 19.8257 21.238C16.5382 21.238 15.8127 20.4245 15.5752 18.8245C15.5502 18.6522 15.4011 18.5288 15.2261 18.5288H13.6123C13.4123 18.5288 13.2632 18.6904 13.2632 18.875C13.2632 20.9304 14.4007 23.3774 19.8257 23.3774C23.7507 23.3774 26 21.8532 26 19.1947C26 16.5609 24.1872 15.858 20.3872 15.3534C16.5247 14.8611 16.1367 14.6025 16.1367 13.7163C16.1367 12.9779 16.4752 12.0072 19.3252 12.0072C21.8627 12.0072 22.8122 12.547 23.1997 14.2332C23.2372 14.3932 23.3738 14.5168 23.5488 14.5168H25.1626C25.2626 14.5168 25.3488 14.4681 25.4238 14.3942C25.4863 14.3327 25.5242 14.2334 25.5117 14.1226C25.2617 11.218 23.3002 9.85337 19.3252 9.85337Z" fill="black"/>
</svg>
