<svg width="32" height="32" viewBox="0 0 32 32" fill="none" xmlns="http://www.w3.org/2000/svg">
<path d="M22.8139 22.9348C23.0054 21.3208 22.9507 21.0815 24.1543 21.3482L24.4621 21.3755C25.3853 21.4166 26.5958 21.2251 27.307 20.8968C28.8389 20.1856 29.7416 19.0025 28.2371 19.3171C24.7972 20.0283 24.5578 18.8589 24.5578 18.8589C28.1892 13.47 29.7074 6.63123 28.3943 4.95574C24.8177 0.387459 18.6286 2.54166 18.526 2.60321H18.4918C17.8148 2.46644 17.0489 2.38437 16.194 2.37069C14.6348 2.34334 13.4585 2.78102 12.5627 3.45805C12.5627 3.45805 1.52494 -1.08971 2.03785 9.17524C2.14726 11.3568 5.16999 25.7045 8.774 21.3687C10.0939 19.7821 11.3659 18.4486 11.3659 18.4486C11.995 18.8657 12.7541 19.0846 13.5474 19.0025L13.609 18.9478C13.5885 19.1461 13.5953 19.3376 13.6363 19.5633C12.7063 20.6028 12.9798 20.7806 11.1265 21.1635C9.24588 21.5534 10.3538 22.2372 11.0718 22.4219C11.9472 22.6407 13.9646 22.9485 15.3324 21.0404L15.2776 21.2593C15.6401 21.5534 15.6196 23.3519 15.6675 24.6445C15.7222 25.9301 15.8042 27.1338 16.0709 27.845C16.3308 28.5562 16.6454 30.3753 19.08 29.8556C21.1179 29.4179 22.6772 28.7887 22.8208 22.9416" fill="black"/>
<path d="M22.8139 22.9348C23.0054 21.3208 22.9507 21.0815 24.1543 21.3482L24.4621 21.3755C25.3853 21.4166 26.5958 21.2251 27.307 20.8968C28.8389 20.1856 29.7416 19.0025 28.2371 19.3171C24.7972 20.0283 24.5578 18.8589 24.5578 18.8589C28.1892 13.47 29.7074 6.63123 28.3943 4.95574C24.8177 0.387459 18.6286 2.54166 18.526 2.60321H18.4919C17.8148 2.46644 17.0489 2.38437 16.194 2.37069C14.6348 2.34334 13.4585 2.78102 12.5627 3.45805C12.5627 3.45805 1.52494 -1.08971 2.03785 9.17524C2.14726 11.3568 5.16999 25.7045 8.774 21.3687C10.0939 19.7821 11.3659 18.4486 11.3659 18.4486C11.995 18.8657 12.7541 19.0846 13.5474 19.0025L13.609 18.9478C13.5885 19.1461 13.5953 19.3376 13.6363 19.5633C12.7063 20.6028 12.9798 20.7806 11.1265 21.1635C9.24588 21.5534 10.3538 22.2372 11.0718 22.4219C11.9472 22.6407 13.9646 22.9485 15.3324 21.0404L15.2776 21.2593C15.6401 21.5534 15.6196 23.3519 15.6675 24.6445C15.7222 25.9301 15.8042 27.1338 16.0709 27.845C16.3308 28.5562 16.6454 30.3753 19.08 29.8556C21.1179 29.4179 22.6772 28.7887 22.8208 22.9416" stroke="black" stroke-width="4"/>
<path d="M15.476 20.3564C15.3802 23.7416 15.4965 27.1542 15.8316 27.9816C16.1598 28.8091 16.8711 30.4231 19.3125 29.8965C21.3504 29.4588 22.0959 28.6108 22.4173 26.7438C22.6566 25.3692 23.108 21.5532 23.1695 20.7736" stroke="white" stroke-linecap="round" stroke-linejoin="round"/>
<path d="M12.549 3.38272C12.549 3.38272 1.50442 -1.13769 2.01733 9.1341C2.12675 11.3157 5.14947 25.6633 8.75348 21.3276C10.0734 19.741 11.2633 18.5032 11.2633 18.5032" stroke="white" stroke-linecap="round" stroke-linejoin="round"/>
<path d="M18.5122 2.55529C18.1293 2.67839 24.6534 0.168569 28.3669 4.90782C29.6799 6.58331 28.1617 13.422 24.5235 18.811" stroke="white" stroke-linecap="round" stroke-linejoin="round"/>
<path d="M24.5303 18.8179C24.5303 18.8179 24.7697 19.9805 28.2096 19.2761C29.7141 18.9615 28.8114 20.1514 27.2795 20.8627C26.028 21.444 23.2105 21.5944 23.1694 20.7874C23.0532 18.7085 24.6466 19.3445 24.5372 18.8247C24.4346 18.3528 23.7165 17.8947 23.2446 16.7526C22.8343 15.7541 17.5822 8.08106 24.7013 9.21629C24.9612 9.16158 22.848 2.44594 16.1802 2.33652C9.5193 2.2271 9.73814 10.5293 9.73814 10.5293" stroke="white" stroke-linecap="round" stroke-linejoin="bevel"/>
<path d="M13.609 19.5226C12.679 20.5621 12.9525 20.7399 11.0992 21.1228C9.21858 21.5127 10.3265 22.1965 11.0445 22.3812C11.9199 22.6 13.9373 22.9078 15.3051 20.9998C15.7222 20.4185 15.3051 19.4884 14.7306 19.2559C14.4571 19.1396 14.0878 18.996 13.609 19.5294V19.5226Z" stroke="white" stroke-linecap="round" stroke-linejoin="round"/>
<path d="M13.5474 19.5082C13.4516 18.8996 13.7457 18.1747 14.0603 17.3267C14.5322 16.0547 15.6264 14.7758 14.751 10.741C14.1013 7.73193 9.73136 10.1118 9.73136 10.5221C9.73136 10.9325 9.92968 12.5943 9.65613 14.5228C9.30052 17.0463 11.2632 19.18 13.52 18.9611" stroke="white" stroke-linecap="round" stroke-linejoin="round"/>
<path d="M12.5079 10.4542C12.4874 10.591 12.761 10.9671 13.1234 11.015C13.479 11.0628 13.7868 10.7756 13.8073 10.632C13.8278 10.4952 13.5542 10.3379 13.1918 10.2901C12.8362 10.2422 12.5284 10.3106 12.5079 10.4542Z" fill="white"/>
<path d="M23.4091 10.1666C23.4296 10.3034 23.1561 10.6795 22.7936 10.7274C22.438 10.7752 22.1302 10.488 22.1097 10.3444C22.0892 10.2076 22.3628 10.0503 22.7252 10.0025C23.0877 9.9546 23.3886 10.023 23.4091 10.1666Z" fill="white"/>
<path d="M24.6947 9.20264C24.7562 10.2968 24.4621 11.0423 24.4211 12.2048C24.3664 13.894 25.2281 15.8362 23.9287 17.7716" stroke="white" stroke-linecap="round" stroke-linejoin="round"/>
</svg>
