<svg width="32" height="32" viewBox="0 0 32 32" fill="none" xmlns="http://www.w3.org/2000/svg">
<path d="M16 18.4043C17.3783 18.4043 18.4956 17.3278 18.4956 16C18.4956 14.6721 17.3783 13.5957 16 13.5957C14.6217 13.5957 13.5043 14.6721 13.5043 16C13.5043 17.3278 14.6217 18.4043 16 18.4043Z" fill="#1A1919"/>
<path d="M16 20.9254C23.3958 20.9254 29.3913 18.72 29.3913 15.9996C29.3913 13.2791 23.3958 11.0737 16 11.0737C8.6042 11.0737 2.6087 13.2791 2.6087 15.9996C2.6087 18.72 8.6042 20.9254 16 20.9254Z" stroke="#1A1919" stroke-width="1.5"/>
<path d="M11.572 18.4627C15.2699 24.6332 20.2501 28.5327 22.6956 27.1724C25.1412 25.8122 24.1259 19.7073 20.428 13.5369C16.7301 7.36641 11.7499 3.46695 9.30434 4.82718C6.85881 6.18742 7.87406 12.2923 11.572 18.4627Z" stroke="#1A1919" stroke-width="1.5"/>
<path d="M11.572 13.5368C7.87405 19.7073 6.8588 25.8121 9.30433 27.1724C11.7499 28.5326 16.7301 24.6331 20.428 18.4627C24.1259 12.2922 25.1412 6.18735 22.6956 4.82711C20.2501 3.46688 15.2699 7.36634 11.572 13.5368Z" stroke="#1A1919" stroke-width="1.5"/>
</svg>
