<svg width="32" height="32" viewBox="0 0 32 32" fill="none" xmlns="http://www.w3.org/2000/svg">
<path d="M21.5554 21.4958C22.6182 21.3858 23.4244 20.4696 23.3878 19.37C23.3512 18.2706 22.4349 17.3909 21.3354 17.3909H21.2622C20.1259 17.4276 19.2464 18.3805 19.2831 19.5166C19.3198 20.0664 19.5396 20.5429 19.8694 20.8727C18.6234 23.3284 16.7176 25.1242 13.859 26.6269C11.9166 27.6531 9.90093 28.0196 7.88527 27.7631C6.23602 27.5432 4.95329 26.8102 4.14689 25.6006C2.97419 23.8048 2.86428 21.8623 3.85383 19.9198C4.5502 18.5271 5.64955 17.5009 6.34593 16.9877C6.19934 16.5113 5.9794 15.705 5.86949 15.1187C0.55533 18.967 1.10512 24.1713 2.71769 26.6269C3.92707 28.4595 6.3826 29.5956 9.09464 29.5956C9.82758 29.5956 10.5605 29.5223 11.2936 29.3391C15.9847 28.4228 19.5397 25.6373 21.5554 21.4958ZM28.0057 16.9512C25.2203 13.6892 21.1156 11.8934 16.4245 11.8934H15.8381C15.5083 11.2337 14.8119 10.7938 14.0423 10.7938H13.9689C12.8329 10.8305 11.9534 11.7834 11.9899 12.9196C12.0266 14.0191 12.9428 14.8987 14.0423 14.8987H14.1155C14.9218 14.8621 15.6182 14.3489 15.9114 13.6526H16.5711C19.3564 13.6526 21.9951 14.4589 24.3774 16.0349C26.2098 17.2444 27.5292 18.8204 28.2622 20.7261C28.8852 22.2655 28.8485 23.7681 28.1888 25.051C27.1627 26.9934 25.4402 28.0563 23.1679 28.0563C21.702 28.0563 20.3093 27.6164 19.5763 27.2866C19.1732 27.6531 18.4401 28.2394 17.927 28.6061C19.503 29.339 21.1156 29.7422 22.6548 29.7422C26.1732 29.7422 28.7753 27.7997 29.7648 25.8572C30.8276 23.7314 30.7543 20.0664 28.0057 16.9512ZM9.38782 22.1188C9.42449 23.2183 10.3407 24.0979 11.4402 24.0979H11.5135C12.6496 24.0613 13.5292 23.1083 13.4925 21.9722C13.4559 20.8726 12.5396 19.9931 11.4402 19.9931H11.3669C11.2936 19.9931 11.1835 19.9931 11.1104 20.0296C9.60775 17.5374 8.98473 14.8254 9.20467 11.8933C9.35114 9.69425 10.0842 7.78839 11.3669 6.21238C12.4297 4.8563 14.482 4.1966 15.8748 4.16004C19.7595 4.08669 21.4087 8.92453 21.5187 10.8671C21.9951 10.977 22.8014 11.2336 23.3512 11.4169C22.9113 5.47955 19.2464 2.40088 15.7282 2.40088C12.4297 2.40088 9.38782 4.78318 8.17833 8.30162C6.49252 12.9929 7.59198 17.5009 9.64432 21.056C9.46117 21.3125 9.35114 21.7156 9.38782 22.1188Z" fill="#1A1919"/>
</svg>
