<svg width="32" height="32" viewBox="0 0 32 32" fill="none" xmlns="http://www.w3.org/2000/svg">
<path d="M27.9838 14.2503L6.98376 2.264C6.62978 2.06543 6.22376 1.97926 5.81964 2.01694C5.41552 2.05461 5.03242 2.21435 4.72124 2.47493C4.41007 2.73551 4.18553 3.0846 4.07747 3.47583C3.96942 3.86705 3.98294 4.2819 4.11626 4.66525L7.99126 15.974C7.99077 15.9782 7.99077 15.9823 7.99126 15.9865C7.99056 15.9906 7.99056 15.9949 7.99126 15.999L4.11626 27.3328C4.0095 27.6343 3.97662 27.9571 4.02041 28.274C4.06419 28.5909 4.18335 28.8926 4.36788 29.1539C4.55242 29.4153 4.79695 29.6285 5.08094 29.7758C5.36494 29.923 5.68011 30 6.00001 30.0002C6.3471 29.9994 6.68809 29.909 6.99001 29.7377L27.9788 17.7315C28.2884 17.5581 28.5462 17.3054 28.7259 16.9994C28.9056 16.6934 29.0007 16.3451 29.0013 15.9902C29.002 15.6353 28.9082 15.2867 28.7296 14.98C28.551 14.6734 28.294 14.4198 27.985 14.2453L27.9838 14.2503ZM6.00001 28.0002V27.989L9.76751 17.0003H17C17.2652 17.0003 17.5196 16.8949 17.7071 16.7074C17.8947 16.5198 18 16.2655 18 16.0003C18 15.735 17.8947 15.4807 17.7071 15.2931C17.5196 15.1056 17.2652 15.0003 17 15.0003H9.77751L6.00751 4.01525L6.00001 4.00025L27 15.979L6.00001 28.0002Z" fill="#1A1919"/>
</svg>
