<svg width="32" height="32" viewBox="0 0 32 32" fill="none" xmlns="http://www.w3.org/2000/svg">
<path d="M20.4289 31.9768L30 29.8923C30 29.8923 26.5476 6.40536 26.5191 6.24983C26.4907 6.09609 26.3662 5.9924 26.2381 5.9924C26.11 5.9924 23.6786 5.81184 23.6786 5.81184C23.6786 5.81184 21.9906 4.11531 21.7861 3.93475C21.738 3.8829 21.6847 3.85788 21.6331 3.83106L20.4289 31.9768ZM21.2222 3.78101C21.1937 3.78101 21.1457 3.80603 21.1208 3.80603C21.0924 3.80603 20.7348 3.91151 20.1728 4.08849C19.6072 2.44559 18.6093 0.927821 16.8449 0.927821H16.6919C16.1779 0.282458 15.566 0 15.0271 0C10.9076 0 8.9333 5.17006 8.32143 7.79263C6.73485 8.28425 5.58582 8.64358 5.45242 8.69542C4.55596 8.97788 4.53284 9.0029 4.43146 9.85385C4.33007 10.4688 2 28.6051 2 28.6051L19.9949 32L21.2222 3.78101ZM16.5354 5.03955V5.2219C15.5411 5.53117 14.4401 5.86547 13.364 6.19978C13.9794 3.83464 15.1284 2.67441 16.1263 2.23642C16.386 2.90682 16.5354 3.80603 16.5354 5.03955ZM14.899 1.10659C15.0769 1.10659 15.2565 1.15665 15.4379 1.28894C14.1359 1.90391 12.7005 3.47352 12.11 6.61274C11.2767 6.88065 10.44 7.1381 9.60031 7.38503C10.2922 4.99129 11.9571 1.10659 14.899 1.10659ZM15.614 15.0722C15.614 15.0722 14.5397 14.509 13.2626 14.509C11.3416 14.509 11.2652 15.7175 11.2652 16.0268C11.2652 17.6733 15.566 18.3151 15.566 22.1998C15.566 25.2603 13.645 27.2161 11.0357 27.2161C7.91233 27.2161 6.32575 25.2603 6.32575 25.2603L7.17063 22.4822C7.17063 22.4822 8.81057 23.8981 10.189 23.8981C10.3546 23.9048 10.5198 23.8779 10.6748 23.819C10.8298 23.7601 10.9714 23.6704 11.0911 23.5553C11.2108 23.4401 11.3062 23.3019 11.3716 23.1489C11.4369 22.9958 11.4709 22.8311 11.4715 22.6646C11.4715 20.5032 7.93902 20.3978 7.93902 16.8509C7.93902 13.8673 10.0645 10.9604 14.3903 10.9604C16.0551 10.9604 16.8716 11.4467 16.8716 11.4467L15.614 15.0722ZM17.254 2.05587C18.1753 2.16313 18.7658 3.2143 19.1465 4.39955C18.6876 4.55508 18.1735 4.70883 17.6115 4.8876V4.5533C17.6115 3.55039 17.4834 2.72626 17.254 2.05587Z" fill="black"/>
</svg>
