<svg width="32" height="32" viewBox="0 0 32 32" fill="none" xmlns="http://www.w3.org/2000/svg">
<g clip-path="url(#clip0_1498_705)">
<circle cx="16" cy="16" r="16" fill="#1A1919"/>
<path d="M16.7786 14.1971V25.2905H14.7092V13.4185L16.7786 14.1971Z" fill="white"/>
<path d="M8.51196 13.1628C8.51196 10.3255 10.0586 8.77881 11.872 8.77881C13.6853 8.77881 13.9413 9.03481 16 10.0695C18.0586 11.1041 18.5813 11.3601 19.616 11.3601C20.6506 11.3601 21.1626 10.5815 21.1626 9.03481H22.9653C23.2213 12.1281 21.4186 13.4188 19.6053 13.4188C17.792 13.4188 17.28 13.1628 15.4773 12.1281C13.6746 11.0935 13.152 10.8375 12.1173 10.8375C11.0826 10.8375 10.5706 11.6161 10.3146 13.4188L8.51196 13.1628Z" fill="white"/>
</g>
<defs>
<clipPath id="clip0_1498_705">
<rect width="32" height="32" fill="white"/>
</clipPath>
</defs>
</svg>
