<svg width="32" height="32" viewBox="0 0 32 32" fill="none" xmlns="http://www.w3.org/2000/svg">
<g clip-path="url(#clip0_40_218)">
<path fill-rule="evenodd" clip-rule="evenodd" d="M4.4125 2.6001C3.41148 2.6001 2.6 3.41158 2.6 4.4126V27.5876C2.6 28.5886 3.41148 29.4001 4.4125 29.4001H27.5875C28.5885 29.4001 29.4 28.5886 29.4 27.5876V4.4126C29.4 3.41158 28.5885 2.6001 27.5875 2.6001H4.4125ZM0.599998 4.4126C0.599998 2.30701 2.30691 0.600098 4.4125 0.600098H27.5875C29.6931 0.600098 31.4 2.30701 31.4 4.4126V27.5876C31.4 29.6932 29.6931 31.4001 27.5875 31.4001H4.4125C2.30691 31.4001 0.599998 29.6932 0.599998 27.5876V4.4126Z" fill="#1A1919"/>
<path fill-rule="evenodd" clip-rule="evenodd" d="M19.6078 24.033V26.4066C20.0009 26.6044 20.4657 26.7527 21.0024 26.8516C21.539 26.9505 22.1046 27 22.6992 27C23.2787 27 23.8292 26.9456 24.3508 26.8368C24.8723 26.728 25.3296 26.5488 25.7226 26.299C26.1157 26.0494 26.4268 25.723 26.6561 25.3199C26.8853 24.9169 27 24.4187 27 23.8254C27 23.3951 26.9345 23.0181 26.8035 22.6942C26.6725 22.3703 26.4835 22.0823 26.2366 21.8301C25.9897 21.5779 25.6937 21.3516 25.3485 21.1514C25.0033 20.9511 24.6141 20.762 24.1807 20.584C23.8633 20.4554 23.5786 20.3305 23.3266 20.2094C23.0746 20.0882 22.8605 19.9646 22.6841 19.8385C22.5077 19.7124 22.3717 19.5789 22.276 19.438C22.1803 19.297 22.1323 19.1376 22.1323 18.9595C22.1323 18.7964 22.1752 18.6492 22.2609 18.5182C22.3465 18.3871 22.4675 18.2747 22.6237 18.1807C22.7799 18.0868 22.9713 18.0138 23.1981 17.9619C23.4249 17.91 23.6768 17.884 23.954 17.884C24.1555 17.884 24.3684 17.8989 24.5926 17.9285C24.8169 17.9582 25.0423 18.0039 25.2691 18.0657C25.4959 18.1276 25.7163 18.2055 25.9305 18.2994C26.1446 18.3934 26.3424 18.5021 26.5238 18.6258V16.4079C26.156 16.2695 25.7541 16.1669 25.3183 16.1001C24.8824 16.0334 24.3822 16 23.8179 16C23.2434 16 22.6992 16.0606 22.1853 16.1817C21.6713 16.3029 21.2191 16.492 20.8285 16.7491C20.438 17.0063 20.1294 17.3339 19.9026 17.732C19.6759 18.13 19.5625 18.606 19.5625 19.1598C19.5625 19.8669 19.7704 20.4702 20.1861 20.9697C20.6018 21.4691 21.2329 21.8919 22.0795 22.238C22.412 22.3716 22.7219 22.5026 23.0092 22.6312C23.2964 22.7597 23.5446 22.8933 23.7536 23.0317C23.9627 23.1702 24.1278 23.321 24.2488 23.4842C24.3697 23.6473 24.4302 23.8328 24.4302 24.0405C24.4302 24.1938 24.3923 24.3359 24.3168 24.467C24.2412 24.598 24.1265 24.7117 23.9728 24.8082C23.8192 24.9046 23.6277 24.98 23.3984 25.0344C23.1691 25.0888 22.9008 25.116 22.5934 25.116C22.0694 25.116 21.5504 25.0257 21.0364 24.8452C20.5224 24.6648 20.0462 24.394 19.6078 24.033ZM15.5434 18.1849H18.6449V16.2371H10V18.1849H13.0864V26.8578H15.5434V18.1849Z" fill="#1A1919"/>
</g>
<defs>
<clipPath id="clip0_40_218">
<rect width="32" height="32" fill="white"/>
</clipPath>
</defs>
</svg>
