<svg width="32" height="32" viewBox="0 0 32 32" fill="none" xmlns="http://www.w3.org/2000/svg">
<path d="M27 13.0002H12.7612L26.25 9.43891C26.3777 9.40527 26.4974 9.34667 26.6023 9.26651C26.7073 9.18634 26.7953 9.08619 26.8613 8.97184C26.9273 8.85749 26.97 8.73119 26.9869 8.60025C27.0039 8.4693 26.9947 8.3363 26.96 8.20891L25.94 4.45891C25.7996 3.95439 25.4661 3.52549 25.0118 3.26509C24.5574 3.00469 24.0188 2.93376 23.5125 3.06766L4.47625 8.09266C4.22279 8.15845 3.98499 8.27416 3.7768 8.43299C3.5686 8.59182 3.39418 8.79059 3.26375 9.01766C3.13259 9.24195 3.04785 9.49031 3.01457 9.74799C2.98129 10.0057 3.00014 10.2674 3.07 10.5177L4 13.9452C4 13.9627 4 13.9814 4 14.0002V25.0002C4 25.5306 4.21071 26.0393 4.58579 26.4144C4.96086 26.7894 5.46957 27.0002 6 27.0002H26C26.5304 27.0002 27.0391 26.7894 27.4142 26.4144C27.7893 26.0393 28 25.5306 28 25.0002V14.0002C28 13.7349 27.8946 13.4806 27.7071 13.2931C27.5196 13.1055 27.2652 13.0002 27 13.0002ZM24.02 5.00016L24.77 7.75891L21.9425 8.50891L18.4275 6.47891L24.02 5.00016ZM15.6838 7.20016L19.1987 9.23016L14.5813 10.4489L11.0662 8.42141L15.6838 7.20016ZM5.75875 12.7777L5.00875 10.0177L8.32125 9.14266L11.8363 11.1752L5.75875 12.7777ZM26 25.0002H6V15.0002H26V25.0002Z" fill="#343330"/>
</svg>
