<svg width="32" height="32" viewBox="0 0 32 32" fill="none" xmlns="http://www.w3.org/2000/svg">
<g clip-path="url(#clip0_47_24)">
<path d="M21.205 16.7913L26.8013 14.3588C27.1699 14.1954 27.4805 13.9243 27.6924 13.5811C27.9042 13.238 28.0074 12.8388 27.9883 12.436C27.9692 12.0332 27.8288 11.6455 27.5856 11.3239C27.3423 11.0023 27.0074 10.7618 26.625 10.6338L6.61501 4.10008C6.26505 3.98792 5.89096 3.97434 5.5338 4.06084C5.17664 4.14735 4.85021 4.33058 4.59036 4.59043C4.3305 4.85029 4.14727 5.17671 4.06077 5.53388C3.97427 5.89104 3.98784 6.26513 4.10001 6.61508L10.6338 26.6251C10.757 27.0112 10.9959 27.35 11.3181 27.596C11.6402 27.8419 12.0301 27.9829 12.435 28.0001H12.5338C12.922 28.0014 13.3021 27.8884 13.6266 27.6752C13.9511 27.4621 14.2057 27.1582 14.3588 26.8013L16.7913 21.2051L23 27.4138C23.1857 27.5996 23.4062 27.747 23.6489 27.8475C23.8916 27.948 24.1517 27.9998 24.4144 27.9998C24.6771 27.9998 24.9372 27.948 25.1799 27.8475C25.4225 27.747 25.643 27.5996 25.8288 27.4138L27.4138 25.8288C27.5995 25.6431 27.7469 25.4226 27.8474 25.1799C27.948 24.9372 27.9997 24.6771 27.9997 24.4145C27.9997 24.1518 27.948 23.8917 27.8474 23.649C27.7469 23.4063 27.5995 23.1858 27.4138 23.0001L21.205 16.7913ZM24.4138 26.0001L18.2063 19.7913C17.9757 19.5605 17.6923 19.3896 17.3805 19.2934C17.0688 19.1973 16.7383 19.1789 16.4178 19.2398C16.0973 19.3007 15.7966 19.439 15.5418 19.6428C15.2871 19.8466 15.0861 20.1096 14.9563 20.4088L12.5288 25.9901L6.00001 6.00008L25.9838 12.5263L20.4038 14.9526C20.1045 15.0824 19.8415 15.2834 19.6377 15.5382C19.4339 15.7929 19.2956 16.0936 19.2347 16.4141C19.1738 16.7346 19.1922 17.0651 19.2884 17.3769C19.3845 17.6886 19.5554 17.9721 19.7863 18.2026L26 24.4138L24.4138 26.0001ZM11 3.00008V2.00008C11 1.73487 11.1054 1.48051 11.2929 1.29298C11.4804 1.10544 11.7348 1.00008 12 1.00008C12.2652 1.00008 12.5196 1.10544 12.7071 1.29298C12.8946 1.48051 13 1.73487 13 2.00008V3.00008C13 3.2653 12.8946 3.51965 12.7071 3.70719C12.5196 3.89473 12.2652 4.00008 12 4.00008C11.7348 4.00008 11.4804 3.89473 11.2929 3.70719C11.1054 3.51965 11 3.2653 11 3.00008ZM1.00001 12.0001C1.00001 11.7349 1.10536 11.4805 1.2929 11.293C1.48044 11.1054 1.73479 11.0001 2.00001 11.0001H3.00001C3.26522 11.0001 3.51958 11.1054 3.70711 11.293C3.89465 11.4805 4.00001 11.7349 4.00001 12.0001C4.00001 12.2653 3.89465 12.5197 3.70711 12.7072C3.51958 12.8947 3.26522 13.0001 3.00001 13.0001H2.00001C1.73479 13.0001 1.48044 12.8947 1.2929 12.7072C1.10536 12.5197 1.00001 12.2653 1.00001 12.0001ZM15.1063 3.55258L16.1063 1.55258C16.2249 1.31538 16.433 1.13504 16.6846 1.05123C16.9363 0.967428 17.2109 0.987023 17.4481 1.10571C17.6853 1.22439 17.8657 1.43244 17.9495 1.68409C18.0333 1.93574 18.0137 2.21038 17.895 2.44758L16.895 4.44758C16.8362 4.56503 16.7549 4.66976 16.6557 4.75578C16.5564 4.8418 16.4412 4.90743 16.3166 4.94893C16.192 4.99043 16.0605 5.00697 15.9295 4.99763C15.7985 4.98828 15.6706 4.95322 15.5531 4.89446C15.4357 4.83569 15.331 4.75437 15.2449 4.65513C15.1589 4.55589 15.0933 4.44068 15.0518 4.31607C15.0103 4.19147 14.9937 4.05991 15.0031 3.92891C15.0124 3.79791 15.0475 3.67003 15.1063 3.55258ZM4.89501 15.5526C4.95386 15.6701 4.98897 15.7981 4.99833 15.9292C5.00769 16.0603 4.99111 16.1919 4.94955 16.3166C4.90799 16.4413 4.84225 16.5566 4.75611 16.6558C4.66996 16.7551 4.5651 16.8364 4.44751 16.8951L2.44751 17.8951C2.2103 18.0138 1.93567 18.0334 1.68402 17.9496C1.43237 17.8658 1.22432 17.6854 1.10563 17.4482C0.986947 17.211 0.967352 16.9364 1.05116 16.6847C1.13496 16.4331 1.3153 16.225 1.55251 16.1063L3.55251 15.1063C3.66995 15.0474 3.79784 15.0123 3.92889 15.0028C4.05993 14.9934 4.19155 15.0098 4.31622 15.0513C4.4409 15.0927 4.55619 15.1583 4.6555 15.2443C4.75481 15.3304 4.83619 15.4351 4.89501 15.5526Z" fill="#343330"/>
</g>
<defs>
<clipPath id="clip0_47_24">
<rect width="32" height="32" fill="white"/>
</clipPath>
</defs>
</svg>
