<svg width="32" height="32" viewBox="0 0 32 32" fill="none" xmlns="http://www.w3.org/2000/svg">
<g clip-path="url(#clip0_1498_684)">
<path fill-rule="evenodd" clip-rule="evenodd" d="M32 16C32 24.8366 24.8366 32 16 32C7.16344 32 0 24.8366 0 16C0 7.16344 7.16344 0 16 0C24.8366 0 32 7.16344 32 16ZM19.2499 18.6702L20.6999 14.1002H20.6899C21.3299 12.3702 22.5899 10.7402 24.9899 10.7402L21.5899 19.0002C21.2947 19.9362 20.709 20.7537 19.9179 21.3345C19.1268 21.9152 18.1713 22.229 17.1899 22.2302C17.1899 22.2302 16.1899 15.1302 16.1899 14.9702L14.6899 18.8702C14.0199 20.6002 12.7199 22.2302 10.3199 22.2302L8.43994 10.7502C9.35502 10.7732 10.2299 11.1309 10.8989 11.7557C11.5679 12.3804 11.9846 13.2289 12.0699 14.1402C12.0699 14.1402 12.3199 18.3502 12.3199 18.6802L14.0899 14.1002C14.7299 12.3702 15.9499 10.7402 18.2499 10.7402C18.2499 10.7402 19.2499 18.3202 19.2499 18.6702Z" fill="#1A1919"/>
</g>
<defs>
<clipPath id="clip0_1498_684">
<rect width="32" height="32" fill="white"/>
</clipPath>
</defs>
</svg>
