<svg width="32" height="32" viewBox="0 0 32 32" fill="none" xmlns="http://www.w3.org/2000/svg">
<path fill-rule="evenodd" clip-rule="evenodd" d="M28.8346 8.9992L16.4605 2L4.08643 8.9992V23.0008L16.4605 30L28.8346 23.0008V8.9992ZM26.6252 22.518L16.8698 28.0368V23.7394L22.9481 20.3949L26.6252 22.518ZM27.2935 21.9137V10.3741L23.7251 12.4365V19.8545L27.2935 21.9137ZM6.25749 22.518L16.0129 28.0368V23.7394L9.93135 20.3949L6.25749 22.518ZM5.58922 21.9137V10.3741L9.15757 12.4365V19.8545L5.58922 21.9137ZM6.00809 9.62591L16.0129 3.96643V8.11991L9.60201 11.6467L9.55085 11.6755L6.00809 9.62591ZM26.8746 9.62591L16.8698 3.96643V8.11991L23.2807 11.6435L23.3318 11.6723L26.8746 9.62591ZM16.013 22.7611L10.0146 19.4614V12.929L16.013 16.3918V22.7611ZM16.8699 22.7611L22.8683 19.4646V12.929L16.8699 16.3918V22.7611ZM10.4207 12.1744L16.4414 8.86504L22.4622 12.1744L16.4414 15.65L10.4207 12.1744Z" fill="#1A1919"/>
</svg>
